<svg width="64" height="64" viewBox="0 0 64 64" fill="none" xmlns="http://www.w3.org/2000/svg">
  <path d="M40.5 16.2C35.9 16.9 31.8 19.2 29 22.6C26.2 26 24.9 30.5 25.3 35.1C25.6 39.8 27.7 44.1 31 47.1C34.2 50.1 38.5 51.8 43.1 51.8C37.8 54.3 31.6 54.2 26.4 51.1C21.2 48 17.8 42.7 17.2 36.7C16.6 30.7 18.7 24.9 22.8 20.4C26.9 15.9 32.6 13.2 38.7 13C39.3 13 39.9 13 40.5 13.1" stroke="#6D5A33" stroke-width="1.8" stroke-linecap="round"/>
  <path d="M47.5 18.5L48.4 21.1L51 22L48.4 22.9L47.5 25.5L46.6 22.9L44 22L46.6 21.1L47.5 18.5Z" stroke="#A4864B" stroke-width="1.1"/>
</svg>
